<?xml version="1.0" standalone="no"?>
<!DOCTYPE svg PUBLIC "-//W3C//DTD SVG 20010904//EN"
 "http://www.w3.org/TR/2001/REC-SVG-20010904/DTD/svg10.dtd">
<svg version="1.0" xmlns="http://www.w3.org/2000/svg"
 width="907.000000pt" height="907.000000pt" viewBox="0 0 907.000000 907.000000"
 preserveAspectRatio="xMidYMid meet">
<metadata>
Created by potrace 1.11, written by Peter Selinger 2001-2013
</metadata>
<g transform="translate(0.000000,907.000000) scale(0.100000,-0.100000)"
fill="#000000" stroke="none">
<path d="M4529 8916 c-2 -2 -80 -7 -174 -10 -93 -3 -179 -8 -190 -10 -11 -2
-56 -7 -100 -10 -44 -4 -87 -9 -95 -11 -8 -2 -37 -7 -65 -10 -27 -3 -88 -13
-135 -21 -47 -9 -96 -18 -110 -20 -14 -3 -97 -22 -185 -44 -298 -73 -576 -173
-851 -308 -212 -105 -286 -147 -524 -301 -105 -68 -320 -233 -442 -340 -577
-506 -996 -1125 -1253 -1847 -30 -84 -56 -163 -59 -175 -3 -13 -17 -64 -31
-114 -14 -49 -27 -99 -30 -110 -18 -78 -66 -317 -70 -350 -3 -22 -8 -49 -10
-60 -1 -11 -6 -45 -10 -75 -4 -30 -9 -66 -11 -80 -2 -14 -6 -63 -10 -110 -3
-47 -7 -112 -9 -145 -10 -135 -4 -478 10 -615 15 -143 24 -217 29 -245 2 -11
7 -42 10 -68 8 -56 8 -55 37 -197 202 -1008 796 -1948 1632 -2584 137 -104
326 -233 412 -282 11 -6 45 -25 75 -43 95 -55 341 -177 435 -216 50 -20 99
-41 110 -46 136 -60 447 -157 660 -204 154 -34 138 -32 290 -54 261 -40 353
-46 670 -46 246 0 404 6 470 19 11 2 51 7 88 11 37 3 78 8 90 11 12 2 38 6 57
9 19 3 46 7 60 10 14 3 48 9 75 14 596 112 1198 373 1705 738 161 116 180 131
315 247 685 589 1168 1374 1389 2261 19 77 39 167 45 200 6 33 13 69 15 80 2
11 7 40 11 65 4 25 9 52 10 61 2 8 6 40 9 70 4 30 8 68 10 84 28 209 28 829 1
974 -1 9 -6 43 -9 76 -10 86 -15 117 -38 235 -11 58 -22 116 -25 130 -13 74
-78 312 -116 430 -206 630 -557 1212 -1017 1686 -509 524 -1148 920 -1829
1134 -73 23 -141 43 -150 45 -9 2 -73 17 -142 34 -175 42 -364 76 -549 96 -30
4 -68 8 -85 10 -16 2 -109 7 -205 10 -96 4 -178 9 -181 11 -3 2 -8 2 -10 0z
m1817 -1614 c-2 -4 -7 -41 -11 -82 -3 -41 -8 -86 -10 -100 -12 -92 -20 -169
-30 -295 -4 -44 -9 -89 -11 -100 -4 -19 -6 -38 -19 -177 -3 -31 -8 -66 -10
-77 -10 -54 -20 -201 -16 -258 1 -29 34 -46 72 -38 28 6 29 9 29 58 0 68 15
120 44 154 13 16 34 58 46 93 33 100 99 363 106 425 4 31 11 58 17 62 11 7
201 53 204 49 3 -3 10 -68 18 -171 3 -44 8 -96 10 -115 3 -19 7 -60 10 -90 7
-66 12 -107 22 -180 4 -30 7 -95 7 -145 0 -76 -4 -99 -25 -146 -46 -98 -123
-156 -224 -166 -67 -7 -119 10 -162 54 l-34 34 -34 -34 c-112 -112 -262 -90
-296 44 -12 48 -13 48 -31 29 -10 -10 -18 -22 -18 -25 0 -14 -89 -88 -135
-113 -41 -22 -63 -26 -127 -27 -69 0 -80 3 -120 30 -39 28 -76 82 -93 140 -5
16 -20 5 -97 -73 -50 -51 -107 -100 -127 -109 -20 -8 -68 -16 -108 -16 -65 -1
-76 2 -115 29 -27 19 -52 49 -69 82 l-26 52 -44 -46 c-86 -90 -111 -111 -161
-129 -94 -33 -192 -16 -239 43 l-20 25 -37 -35 c-49 -48 -92 -68 -143 -68 -60
0 -104 30 -126 88 -10 26 -17 50 -15 55 6 19 -16 4 -27 -19 -19 -43 -61 -92
-96 -114 -39 -24 -106 -33 -143 -19 -36 14 -77 63 -91 110 -11 36 -16 212 -7
254 2 11 7 55 11 98 3 43 8 86 10 95 1 9 6 51 10 92 3 41 8 82 10 90 3 8 7 49
10 90 8 112 7 110 78 111 34 0 79 2 100 3 l37 3 -6 -66 c-3 -36 -7 -68 -9 -71
-2 -3 -6 -50 -10 -105 -4 -55 -9 -109 -11 -120 -2 -10 -6 -51 -10 -90 -3 -38
-8 -79 -10 -89 -2 -11 -6 -52 -10 -92 -8 -93 6 -134 46 -134 15 0 35 8 44 19
26 29 55 113 61 178 5 55 9 90 20 193 3 25 7 68 10 95 3 28 7 68 10 90 3 22 7
63 11 90 3 28 7 61 8 75 2 14 4 28 4 31 1 3 47 6 103 8 l100 2 -6 -48 c-6 -50
-8 -73 -20 -208 -4 -44 -9 -88 -11 -99 -2 -10 -6 -46 -9 -80 -3 -33 -7 -74
-10 -91 -13 -99 -16 -194 -6 -212 11 -22 52 -35 72 -22 7 4 13 33 14 71 2 65
19 114 55 158 11 14 22 34 24 45 2 11 13 47 25 80 26 78 98 382 100 426 1 12
23 20 89 34 48 10 94 22 104 26 18 10 23 -9 33 -131 13 -161 25 -272 31 -303
2 -11 6 -53 10 -92 3 -38 8 -79 10 -90 2 -11 5 -44 5 -72 1 -29 6 -50 10 -47
5 3 9 14 9 25 0 27 27 89 49 114 10 11 28 49 41 85 19 55 30 94 65 230 2 8 15
68 29 133 13 66 27 121 29 124 5 4 101 31 140 39 10 2 27 6 37 9 10 3 21 2 23
-2 5 -8 12 -64 22 -168 3 -33 8 -82 11 -110 3 -27 7 -66 9 -85 2 -19 6 -48 9
-65 7 -41 19 -189 20 -252 1 -57 2 -59 28 -39 14 10 18 29 18 92 0 80 3 121
15 184 50 267 178 430 336 430 102 0 155 -56 162 -170 6 -86 -24 -205 -62
-252 -6 -7 -22 -27 -36 -45 -34 -42 -110 -92 -162 -105 l-43 -10 0 -57 c0
-122 40 -178 118 -167 61 8 113 38 154 88 40 49 39 41 68 343 5 61 13 133 16
160 4 28 8 61 9 75 1 14 5 52 9 85 3 33 8 76 11 95 3 19 7 60 10 90 2 30 8 84
12 120 4 36 7 69 7 74 1 10 37 23 88 32 15 3 47 11 70 18 42 12 62 12 54 -2z
m-3249 -97 c127 -63 184 -224 137 -386 -17 -59 -67 -144 -92 -158 -13 -7 -10
-12 18 -24 109 -46 158 -172 147 -375 -15 -247 -96 -411 -224 -448 -92 -27
-162 -4 -189 61 -14 36 -18 103 -8 143 6 22 6 22 41 -8 57 -50 108 -35 147 44
29 59 38 111 37 216 0 144 -25 232 -75 265 -26 17 -112 23 -127 8 -4 -4 -10
-29 -13 -55 -3 -27 -9 -69 -12 -95 -7 -54 -10 -88 -18 -188 -4 -38 -8 -86 -11
-105 -3 -19 -7 -57 -10 -85 -21 -212 -12 -195 -96 -196 -38 -1 -81 -2 -96 -3
-27 -1 -28 1 -27 44 1 50 12 164 18 195 2 11 7 56 10 100 4 44 9 87 11 95 5
19 13 104 20 195 3 39 8 81 10 95 3 14 7 48 10 75 3 28 7 73 11 100 3 28 7 64
9 80 13 147 22 216 27 220 3 2 39 9 147 31 14 3 29 8 34 11 18 11 24 -18 16
-75 -14 -94 -18 -133 -24 -219 -3 -46 -8 -92 -10 -103 -3 -17 0 -19 23 -14 41
9 74 35 109 88 92 135 76 329 -31 392 -49 29 -160 24 -224 -11 -28 -15 -65
-41 -82 -58 -32 -32 -95 -117 -86 -117 3 0 -5 -21 -16 -47 -27 -60 -35 -246
-14 -305 7 -21 12 -39 9 -41 -7 -8 -73 10 -98 27 -36 24 -56 70 -59 137 -4 84
8 143 49 225 37 76 120 171 191 218 46 30 126 62 176 71 18 3 34 7 35 9 2 2
36 2 75 0 52 -3 86 -11 125 -29z m718 -415 c23 -19 46 -79 47 -120 1 -53 -36
-126 -67 -134 -48 -12 -74 3 -85 48 -17 64 -18 66 -38 66 -23 0 -68 -34 -83
-62 -11 -20 -12 -27 -24 -138 -4 -36 -8 -76 -10 -90 -2 -14 -6 -56 -10 -95 -4
-38 -8 -81 -10 -95 -1 -14 -6 -59 -10 -100 -4 -41 -9 -86 -10 -100 -2 -14 -4
-38 -4 -55 -2 -54 -11 -58 -121 -63 -58 -2 -100 0 -97 5 3 4 9 40 12 78 4 39
9 81 11 95 1 14 5 52 8 85 4 33 8 74 11 90 2 17 7 62 10 100 4 39 8 81 10 95
2 14 7 61 11 105 3 44 8 82 9 85 2 3 6 41 10 85 9 99 10 103 16 110 3 3 50 7
103 10 l98 5 -6 -57 -5 -56 43 48 c24 27 57 54 73 61 31 13 88 10 108 -6z
m-1747 -184 c172 -48 301 -202 337 -401 9 -52 6 -218 -5 -270 -13 -62 -46
-122 -83 -149 -21 -15 -47 -22 -102 -24 -65 -4 -80 -1 -117 21 -24 14 -51 34
-61 45 -16 17 -16 20 -2 32 36 30 94 190 97 267 4 125 -42 253 -107 293 -80
50 -197 23 -292 -68 -255 -244 -421 -831 -380 -1346 19 -232 86 -424 181 -515
42 -41 123 -70 180 -65 53 5 126 24 126 34 0 4 8 10 19 13 10 2 37 28 60 57
30 38 41 61 42 88 1 43 4 72 18 191 6 47 13 111 16 141 3 30 8 66 10 80 3 14
7 48 10 75 14 153 23 227 28 231 1 1 85 4 186 7 l183 5 -6 -71 c-3 -40 -8 -82
-11 -95 -2 -12 -6 -55 -9 -95 -3 -39 -8 -81 -10 -92 -2 -11 -7 -56 -10 -100
-4 -44 -9 -87 -11 -95 -2 -8 -6 -46 -10 -85 -3 -38 -8 -77 -10 -85 -2 -8 -7
-51 -10 -95 -3 -44 -7 -91 -9 -105 -3 -14 -7 -55 -11 -92 -3 -37 -8 -77 -10
-90 -2 -13 -7 -50 -9 -83 -3 -33 -8 -76 -10 -95 -3 -19 -7 -63 -10 -98 -3 -35
-8 -84 -11 -110 -15 -118 -26 -200 -31 -223 -8 -40 -24 -122 -29 -149 -9 -49
-76 -249 -85 -255 -6 -3 -10 -12 -10 -20 0 -29 -84 -158 -137 -209 -148 -144
-414 -202 -577 -125 -48 22 -126 95 -147 137 -7 15 -21 39 -31 53 -9 14 -29
66 -44 115 -24 77 -27 107 -28 224 0 113 4 147 23 210 41 134 110 238 182 276
49 25 155 35 234 21 119 -20 176 -105 180 -267 1 -52 -1 -103 -3 -113 -4 -17
-6 -17 -26 1 -92 82 -197 91 -265 23 -86 -86 -104 -278 -39 -408 39 -78 73
-107 126 -106 82 1 136 21 170 62 41 49 93 202 108 316 2 22 7 51 9 65 2 14 6
57 10 95 3 39 8 81 10 95 2 14 6 50 10 80 3 30 8 71 10 90 7 56 14 117 30 280
3 30 8 67 11 83 2 15 2 27 -1 27 -2 0 -37 -22 -77 -49 -109 -72 -192 -100
-303 -102 -112 -1 -214 29 -304 92 -99 68 -197 220 -250 389 -34 110 -42 144
-56 250 -4 30 -9 64 -11 74 -21 113 -21 450 0 562 2 10 7 44 10 75 5 45 35
176 60 269 33 117 121 305 193 411 196 290 431 423 733 414 58 -2 129 -10 158
-19z m5787 -646 c4 -58 8 -121 10 -140 2 -19 6 -69 9 -110 4 -41 9 -97 12
-123 3 -27 7 -67 9 -90 2 -23 6 -63 9 -89 12 -96 17 -143 22 -197 2 -31 6 -72
9 -91 3 -19 8 -55 10 -80 6 -64 16 -160 21 -195 20 -164 23 -292 8 -385 -26
-166 -105 -308 -223 -403 -34 -27 -149 -82 -201 -96 -97 -26 -222 -17 -313 22
-52 22 -146 120 -183 190 l-30 57 -30 -35 c-41 -51 -165 -175 -175 -175 -4 0
-14 -6 -21 -13 -19 -19 -118 -72 -153 -82 -50 -14 -58 -15 -111 -23 -182 -28
-335 35 -432 180 -13 21 -26 38 -27 38 -2 0 -12 -18 -24 -41 -25 -48 -32 -56
-95 -121 -70 -72 -139 -101 -235 -100 -192 2 -309 109 -345 317 -13 73 -15
322 -3 380 3 11 8 56 12 100 5 44 9 89 11 100 1 11 5 47 8 80 4 33 9 71 11 85
25 144 33 367 15 444 -19 87 -43 115 -98 116 -63 0 -118 -61 -163 -181 -20
-52 -45 -160 -53 -227 -8 -63 -16 -145 -20 -197 -2 -27 -7 -77 -11 -110 -12
-122 -27 -251 -30 -280 -4 -29 -10 -86 -20 -202 -8 -86 -16 -164 -20 -198 -2
-16 -7 -61 -10 -100 -6 -68 -15 -138 -18 -142 -2 -1 -153 -11 -308 -19 l-107
-6 3 29 c7 74 17 171 21 203 2 19 6 62 9 95 8 76 24 237 30 293 3 23 7 61 10
85 2 23 7 62 9 87 9 82 15 144 21 220 3 41 7 86 10 100 2 14 7 50 10 80 3 30
8 78 11 105 11 89 11 196 1 242 -18 78 -71 112 -130 82 -92 -48 -160 -223
-182 -474 -4 -38 -8 -81 -10 -95 -4 -27 -12 -101 -20 -195 -6 -72 -14 -146
-20 -200 -3 -22 -8 -67 -11 -100 -2 -33 -7 -71 -9 -85 -3 -14 -7 -56 -10 -95
-2 -38 -7 -90 -10 -115 -7 -65 -13 -115 -20 -195 -4 -38 -10 -73 -14 -77 -3
-4 -58 -9 -121 -13 -63 -3 -155 -8 -204 -10 l-88 -5 5 51 6 50 -39 -35 c-74
-66 -177 -105 -275 -101 -151 5 -241 114 -274 335 -1 3 -15 -22 -32 -55 -92
-175 -207 -282 -333 -309 -56 -13 -80 -13 -146 -2 -62 11 -91 28 -148 85 -72
74 -136 222 -157 361 -4 25 -9 59 -12 75 -6 40 -6 315 1 390 6 69 12 108 32
220 8 44 16 92 19 106 10 65 80 270 125 364 77 162 181 291 282 353 84 52 234
76 321 51 50 -14 103 -62 118 -107 18 -56 24 -56 27 1 1 29 4 61 7 72 2 11 4
25 4 31 1 7 11 12 24 11 20 0 231 11 337 18 25 1 48 -1 51 -7 3 -5 3 -30 -1
-56 -4 -26 -11 -81 -14 -122 -12 -135 -24 -252 -30 -305 -3 -16 -7 -61 -10
-98 -4 -37 -8 -82 -10 -100 -10 -74 -16 -126 -21 -192 -3 -38 -8 -88 -10 -110
-2 -22 -7 -67 -11 -100 -9 -89 -11 -102 -20 -190 -5 -44 -9 -120 -9 -170 0
-76 4 -96 23 -126 36 -59 91 -71 159 -36 49 26 49 28 69 216 6 62 14 135 18
176 3 22 8 67 11 100 3 33 8 78 10 100 2 22 7 72 10 110 3 39 8 81 10 95 3 14
7 51 10 82 3 32 8 75 10 95 2 21 6 67 9 103 9 97 18 183 21 200 2 8 6 50 10
93 3 43 8 86 10 95 1 9 6 49 10 87 4 39 7 71 8 72 2 2 145 10 311 19 l108 5
-6 -48 c-19 -152 -18 -165 8 -115 22 41 96 116 142 145 126 78 287 72 371 -13
54 -56 85 -113 104 -198 l13 -53 26 58 c56 122 159 232 250 270 63 25 202 25
250 -1 142 -77 200 -203 202 -441 1 -102 -7 -238 -17 -310 -2 -16 -7 -59 -10
-95 -3 -36 -7 -76 -10 -90 -3 -14 -7 -47 -10 -75 -3 -27 -8 -61 -10 -75 -2
-14 -7 -47 -10 -75 -3 -27 -8 -61 -10 -75 -3 -14 -6 -73 -7 -131 -1 -90 2
-113 21 -152 28 -58 60 -71 131 -53 61 16 108 63 100 101 -17 89 -15 452 4
551 2 12 7 45 11 75 4 30 9 57 11 60 2 3 6 21 9 40 48 273 165 538 298 673
122 123 234 177 369 178 188 0 284 -78 324 -265 13 -60 13 -274 1 -307 -3 -8
-8 -32 -11 -52 -11 -71 -97 -268 -118 -268 -4 0 -8 -7 -8 -15 0 -8 -42 -57
-92 -108 -107 -108 -183 -155 -304 -188 l-81 -21 3 -102 c9 -316 75 -400 285
-360 91 17 156 54 224 125 50 52 55 62 55 102 0 108 41 224 103 293 19 22 37
50 41 64 4 14 11 34 16 45 24 52 141 477 176 640 9 39 17 77 19 85 9 40 44
219 48 245 3 17 8 42 11 58 3 15 8 37 11 50 5 27 19 32 210 76 72 16 148 34
170 39 22 5 43 6 46 3 4 -3 10 -53 14 -111z m-80 -2188 c-2 -10 -6 -43 -9 -73
-3 -30 -8 -63 -10 -74 -2 -11 -7 -47 -10 -80 -8 -64 -10 -82 -22 -160 -4 -27
-7 -53 -6 -57 1 -4 -2 -29 -7 -55 -10 -50 -21 -137 -26 -188 -1 -16 -8 -66
-14 -110 -6 -44 -13 -97 -16 -119 -5 -45 -13 -104 -21 -161 -33 -233 -33 -271
-7 -312 16 -24 21 -25 75 -20 l59 5 -7 -46 c-18 -124 -112 -207 -229 -203 -71
2 -159 59 -178 114 -2 7 -25 -9 -52 -37 -56 -57 -129 -93 -200 -100 -112 -11
-182 34 -214 138 l-18 58 -23 -38 c-13 -22 -49 -64 -81 -95 -95 -93 -217 -118
-319 -66 -58 29 -123 123 -142 204 -14 65 -17 285 -4 378 18 126 78 292 140
385 95 144 193 208 325 215 98 5 157 -25 174 -90 3 -13 5 -7 7 15 3 45 12 75
25 77 47 7 286 12 282 6 -3 -4 -8 -33 -12 -63 -6 -55 -8 -70 -19 -145 -3 -22
-8 -60 -11 -85 -10 -95 -16 -146 -21 -172 -9 -61 -13 -85 -19 -138 -4 -30 -9
-63 -10 -72 -2 -9 -7 -48 -11 -85 -3 -37 -8 -79 -9 -92 -7 -62 37 -122 83
-115 6 1 18 2 26 3 8 0 27 11 41 24 25 21 27 30 30 109 2 48 8 120 14 160 6
40 13 93 16 118 4 25 8 57 11 71 4 29 10 74 19 154 3 28 8 63 11 79 2 15 7 49
9 75 3 25 6 55 9 67 2 12 7 45 11 75 3 30 10 79 15 109 5 30 12 89 16 130 4
41 8 77 9 80 1 5 18 130 19 142 1 3 4 10 8 14 8 7 157 42 218 50 19 3 36 7 39
9 2 3 12 5 22 5 12 0 17 -6 14 -18z m-2420 -98 c129 -49 150 -249 34 -330
-111 -76 -245 11 -244 160 1 135 97 213 210 170z m-2016 -50 c-22 -117 -60
-184 -124 -222 -36 -20 -50 -22 -125 -18 -47 2 -112 9 -144 15 -33 6 -62 9
-64 6 -2 -2 -6 -21 -8 -42 -6 -46 -34 -258 -39 -293 -2 -14 -6 -49 -10 -77
l-7 -52 89 5 c162 10 208 9 206 -2 -1 -6 -4 -37 -8 -70 -8 -86 -12 -94 -48
-95 -18 -1 -52 -2 -77 -4 -25 -2 -75 -4 -112 -6 -51 -2 -69 -7 -72 -19 -5 -14
-20 -121 -31 -205 -3 -22 -7 -51 -9 -65 -3 -14 -7 -52 -11 -85 -8 -75 -14
-124 -20 -150 -2 -11 -7 -45 -10 -75 -3 -30 -11 -84 -16 -120 -6 -36 -13 -87
-15 -115 -3 -27 -7 -52 -10 -54 -3 -3 -24 -6 -47 -7 -23 -1 -88 -5 -144 -8
l-101 -6 3 33 c2 17 7 52 10 77 4 25 8 59 10 75 6 43 26 186 30 215 2 14 7 54
10 89 3 36 8 67 10 70 2 4 6 31 9 61 3 30 8 64 10 75 2 11 7 45 10 76 4 31 8
65 10 75 2 11 7 46 11 79 4 33 9 74 11 90 2 17 6 46 9 65 2 19 7 51 9 70 3 19
8 58 12 85 3 28 8 58 10 69 2 10 6 44 9 75 3 31 8 65 10 76 2 11 7 44 10 73 7
60 2 63 -67 33 -64 -28 -121 -89 -135 -143 -35 -141 -39 -364 -9 -447 9 -24
16 -45 16 -46 0 -5 -78 3 -102 10 -35 11 -86 53 -102 84 -25 47 -35 166 -22
253 34 236 189 409 429 477 121 35 175 39 467 30 123 -3 185 2 245 20 17 5 33
10 36 10 4 1 3 -20 -2 -45z m1626 -106 c-2 -13 -12 -77 -20 -143 -9 -66 -18
-139 -22 -163 l-5 -43 58 3 59 3 -2 -43 c0 -24 -3 -45 -6 -48 -2 -2 -27 -6
-55 -7 -69 -4 -65 1 -78 -107 -3 -30 -8 -58 -10 -61 -2 -3 -6 -35 -9 -69 -4
-35 -8 -66 -10 -69 -2 -4 -6 -42 -10 -86 -4 -44 -9 -82 -10 -85 -2 -3 -6 -37
-10 -75 -4 -39 -9 -73 -11 -76 -8 -14 -16 -170 -10 -193 12 -48 76 -62 137
-31 43 23 56 51 63 135 3 41 7 91 10 110 2 19 7 58 10 85 10 80 16 127 21 165
3 19 8 53 11 75 2 22 7 51 9 65 9 60 17 118 20 155 2 22 6 56 9 75 3 19 7 47
8 63 2 25 6 27 48 28 25 1 63 2 85 4 160 10 160 10 158 -16 -4 -62 -14 -166
-17 -185 -2 -12 -7 -45 -11 -75 -3 -30 -8 -61 -10 -69 -2 -8 -7 -40 -10 -70
-3 -30 -8 -66 -10 -80 -2 -14 -7 -50 -10 -80 -4 -30 -8 -66 -10 -80 -14 -96
-19 -143 -19 -199 0 -55 4 -67 24 -83 32 -26 89 -18 135 19 28 22 35 35 36 63
0 19 2 49 4 65 2 17 6 52 9 79 3 27 8 63 10 80 3 17 8 51 11 76 3 25 12 95 21
155 8 61 17 133 19 160 3 28 7 61 10 75 2 14 7 45 10 70 14 113 15 118 38 117
12 0 80 3 151 7 73 5 126 4 123 -1 -3 -5 -8 -36 -12 -68 -3 -33 -8 -67 -11
-75 -2 -8 -6 -44 -9 -80 -3 -36 -7 -76 -10 -90 -6 -31 -11 -70 -20 -140 -4
-30 -9 -62 -10 -70 -3 -15 -12 -92 -21 -165 -4 -40 -8 -70 -19 -152 -4 -29 -1
-54 11 -78 14 -31 21 -35 53 -35 85 0 166 94 231 270 14 36 25 70 26 75 1 6 9
37 17 70 15 59 26 116 33 165 7 46 14 210 10 210 -3 0 -17 -5 -32 -11 -39 -14
-68 -4 -84 28 -40 83 -28 162 31 197 38 22 110 17 140 -10 25 -22 50 -75 58
-119 7 -42 6 -216 -1 -300 -9 -103 -52 -308 -78 -370 -4 -11 -16 -40 -25 -65
-65 -176 -200 -325 -325 -360 -54 -15 -140 -18 -185 -7 -50 12 -120 63 -136
99 l-11 27 -49 -49 c-52 -52 -83 -72 -153 -96 -54 -20 -146 -20 -184 0 -36 18
-91 72 -101 97 -5 16 -14 11 -58 -31 -63 -59 -139 -97 -215 -105 -74 -8 -124
7 -171 49 -41 39 -54 65 -71 143 l-11 52 -40 -35 c-22 -19 -75 -67 -118 -106
-97 -89 -98 -90 -172 -118 -84 -31 -211 -32 -278 -2 -40 18 -127 94 -127 112
0 3 -4 11 -9 19 -8 12 -18 6 -53 -29 -56 -56 -145 -114 -211 -137 -78 -26
-227 -25 -288 3 -95 44 -151 126 -169 249 -10 70 -7 325 3 342 4 6 8 23 11 39
21 112 77 262 129 340 49 75 129 147 203 184 63 32 77 35 159 35 107 0 151
-17 188 -74 40 -60 51 -146 33 -261 -25 -163 -186 -330 -365 -379 l-66 -18 1
-84 c2 -166 61 -219 209 -187 81 17 175 83 181 126 2 9 5 36 9 58 6 41 57 134
73 134 22 0 152 368 187 530 15 69 45 183 49 187 6 6 288 64 292 60 3 -3 11
-71 19 -162 11 -125 24 -255 32 -300 16 -104 39 -331 38 -392 0 -40 3 -73 6
-73 3 0 22 15 42 33 31 27 37 40 42 87 6 57 9 77 19 145 4 22 9 63 11 90 2 28
6 59 9 70 2 11 6 40 10 65 21 161 36 275 36 283 0 5 -14 7 -30 5 l-31 -5 2 49
c2 44 5 48 28 49 14 1 29 1 34 0 4 0 7 2 8 6 0 5 2 17 4 28 2 11 7 40 10 65
18 131 33 221 39 227 6 6 248 61 274 62 18 1 21 -3 17 -21z"/>
<path d="M5837 6812 c-40 -43 -87 -186 -103 -312 -3 -19 -7 -41 -9 -47 -10
-30 70 8 107 50 67 78 107 265 67 313 -16 19 -43 18 -62 -4z"/>
<path d="M6560 6723 c-3 -47 -4 -50 -12 -59 -5 -4 -8 -16 -8 -26 0 -20 -19
-84 -50 -173 -17 -49 -17 -51 2 -70 30 -30 20 -99 -20 -136 -40 -38 -48 -65
-26 -90 21 -23 64 -25 110 -3 61 29 77 126 50 294 -6 39 -15 109 -22 179 -4
35 -10 76 -14 90 -8 25 -8 25 -10 -6z"/>
<path d="M5197 6638 c-4 -24 -22 -99 -42 -167 -33 -114 -34 -126 -20 -147 37
-57 0 -151 -56 -140 -27 5 -27 5 -17 -32 14 -50 35 -72 72 -72 74 1 122 56
125 146 1 33 -3 95 -9 139 -24 175 -31 235 -34 272 -3 49 -12 49 -19 1z"/>
<path d="M4694 6652 c4 -7 3 -27 -3 -45 -5 -17 -12 -45 -14 -62 -3 -16 -19
-74 -37 -128 -29 -91 -30 -100 -15 -117 15 -16 20 -41 16 -83 0 -11 -13 -31
-29 -45 -38 -37 -53 -74 -38 -93 26 -36 105 -28 144 14 38 40 42 114 18 297
-10 70 -14 109 -21 185 -4 39 -12 75 -18 80 -7 7 -8 6 -3 -3z"/>
<path d="M6698 5708 c-41 -24 -85 -93 -127 -198 -34 -86 -77 -239 -90 -320
-14 -82 -21 -122 -26 -150 -3 -14 -7 -51 -11 -83 -6 -66 -8 -66 82 -27 171 74
314 382 297 639 -9 141 -47 183 -125 139z"/>
<path d="M7449 5519 c-1 -13 -3 -35 -4 -49 -9 -68 -121 -487 -164 -611 l-19
-56 28 -23 c64 -53 59 -210 -9 -283 -23 -26 -31 -28 -73 -24 -41 3 -49 1 -54
-15 -13 -43 22 -144 65 -182 13 -12 39 -20 71 -21 140 -8 235 73 265 226 11
53 6 239 -9 324 -3 17 -8 51 -11 77 -3 26 -10 80 -16 120 -5 40 -12 93 -14
118 -2 25 -6 65 -9 90 -3 25 -8 68 -12 95 -3 28 -7 61 -9 75 -2 14 -7 54 -10
90 -7 68 -14 90 -16 49z"/>
<path d="M3162 5473 c-96 -47 -210 -305 -252 -568 -26 -172 -32 -233 -34 -400
-5 -278 42 -407 147 -407 108 0 206 144 231 339 9 63 19 159 31 288 13 136 16
166 25 240 5 44 12 109 15 145 3 36 8 76 10 90 2 14 7 59 10 100 5 67 3 81
-18 120 -36 69 -95 88 -165 53z"/>
<path d="M6812 3129 c-43 -9 -76 -40 -117 -111 -28 -47 -78 -179 -90 -238 -12
-57 -19 -162 -19 -265 0 -132 14 -181 59 -205 53 -28 133 18 176 102 10 20 24
72 30 115 5 43 12 92 15 108 9 57 12 80 20 145 4 36 8 67 9 70 1 3 5 37 9 75
5 39 10 79 12 90 3 11 0 38 -7 61 -12 47 -44 64 -97 53z"/>
<path d="M3547 2985 c-41 -21 -54 -37 -92 -113 -36 -70 -79 -209 -90 -292 -3
-25 -8 -53 -11 -63 -5 -15 -1 -17 23 -11 128 31 233 176 248 344 9 109 -22
164 -78 135z"/>
<path d="M4065 2848 c-4 -18 -9 -35 -10 -38 -1 -3 -7 -25 -14 -50 -12 -45 -70
-218 -93 -277 -11 -29 -10 -35 9 -55 60 -65 3 -202 -76 -181 -33 8 -38 -24
-11 -74 21 -39 42 -54 85 -58 25 -3 109 28 132 48 32 28 56 94 56 152 -1 26
-15 179 -19 198 -3 12 -6 38 -9 57 -2 19 -9 69 -15 110 -6 41 -14 102 -17 135
-3 33 -7 61 -8 63 -1 1 -6 -12 -10 -30z"/>
</g>
</svg>
